<?xml version="1.0" encoding="utf-8"?>
<!-- Generator: Adobe Illustrator 24.1.2, SVG Export Plug-In . SVG Version: 6.00 Build 0)  -->
<svg version="1.1" id="Layer_1" xmlns="http://www.w3.org/2000/svg" xmlns:xlink="http://www.w3.org/1999/xlink" x="0px" y="0px"
	 viewBox="0 0 147.76 40.2" style="enable-background:new 0 0 147.76 40.2;" xml:space="preserve">
<style type="text/css">
	.st0{fill-rule:evenodd;clip-rule:evenodd;fill:#ED1C24;}
	.st1{fill-rule:evenodd;clip-rule:evenodd;fill:#FFFFFF;}
	.st2{fill-rule:evenodd;clip-rule:evenodd;}
</style>
<rect class="st0" width="40.2" height="40.2"/>
<path class="st1" d="M18.92,31.09c-1.97-1.23-3.42-5.49-3.42-10.55c0-0.19,0-0.37,0.01-0.55l0,0l0,0l0,0
	c-5.48-0.86-9.44-3.22-9.54-6.01l0,0l-0.02,0.03l0,0c-1.34,1.67-2.11,3.59-2.11,5.65c0,6.04,6.63,10.99,15.04,11.43l0,0L18.92,31.09
	L18.92,31.09L18.92,31.09z M1.31,20.1c0-6.76,8.41-12.24,18.79-12.24c10.38,0,18.79,5.48,18.79,12.24c0,6.76-8.41,12.24-18.79,12.24
	C9.72,32.34,1.31,26.86,1.31,20.1L1.31,20.1L1.31,20.1L1.31,20.1z M20.1,9.63c2,0,3.71,3.04,4.34,7.28l0,0l0-0.01l0,0
	c3.9-0.61,6.63-2.01,6.63-3.63c0-2.19-4.91-3.96-10.97-3.96c-6.06,0-10.97,1.77-10.97,3.96c0,1.63,2.73,3.03,6.62,3.63l0,0l0,0.01
	l0,0C16.39,12.66,18.1,9.63,20.1,9.63L20.1,9.63L20.1,9.63L20.1,9.63z M21.31,31.08c8.41-0.44,15.04-5.39,15.04-11.43
	c0-2.05-0.77-3.98-2.11-5.65l0,0l-0.02-0.03l0,0c-0.1,2.79-4.06,5.15-9.54,6.01l0,0l0,0l0,0c0,0.18,0.01,0.37,0.01,0.55
	c0,5.06-1.45,9.32-3.42,10.55l0,0L21.31,31.08L21.31,31.08L21.31,31.08z M20.1,17.22c0.9,0,1.77-0.04,2.6-0.11l0,0l0,0l0,0
	c-0.42-2.72-1.42-4.64-2.6-4.64c-1.18,0-2.19,1.92-2.6,4.64l0,0l0,0l0,0C18.33,17.18,19.2,17.22,20.1,17.22L20.1,17.22L20.1,17.22
	L20.1,17.22z M20.1,27.28c1.51,0,2.74-3.14,2.8-7.07l0,0l0.01,0l0,0c-0.91,0.08-1.85,0.13-2.81,0.13c-0.96,0-1.9-0.04-2.81-0.13l0,0
	l0.01,0l0,0C17.36,24.14,18.59,27.28,20.1,27.28L20.1,27.28L20.1,27.28L20.1,27.28z"/>
<path class="st2" d="M94.89,20.1c0-4.64,3.76-8.41,8.41-8.41c4.64,0,8.41,3.76,8.41,8.41c0,4.64-3.76,8.41-8.41,8.41
	C98.65,28.5,94.89,24.74,94.89,20.1L94.89,20.1L94.89,20.1L94.89,20.1z M103.29,25.42c2.59,0,4.69-2.38,4.69-5.32
	c0-2.94-2.1-5.32-4.69-5.32c-2.59,0-4.69,2.38-4.69,5.32C98.6,23.04,100.7,25.42,103.29,25.42L103.29,25.42L103.29,25.42
	L103.29,25.42z"/>
<polygon class="st2" points="121.24,15.19 121.24,28.12 117.7,28.12 117.7,15.19 117.71,15.19 112.76,15.19 112.76,12.27 
	126.18,12.27 126.18,15.19 121.25,15.19 121.24,15.19 121.24,15.19 "/>
<path class="st2" d="M130.46,24.56L130.46,24.56l-1.36,3.57h-4.14l6.54-15.85h2.2h2.2l6.54,15.85h-4.14l-1.36-3.56l0,0h-3.24H130.46
	L130.46,24.56L130.46,24.56z M133.71,21.88h2.23l0,0l-2.21-5.8h-0.03l-2.21,5.8l0,0H133.71L133.71,21.88L133.71,21.88z"/>
<polygon class="st2" points="55.95,15.19 55.95,28.12 52.41,28.12 52.41,15.19 52.42,15.19 47.47,15.19 47.47,12.27 60.89,12.27 
	60.89,15.19 55.96,15.19 55.95,15.19 55.95,15.19 "/>
<path class="st2" d="M61.8,20.1c0-4.64,3.76-8.41,8.41-8.41c4.64,0,8.41,3.76,8.41,8.41c0,4.64-3.76,8.41-8.41,8.41
	C65.56,28.5,61.8,24.74,61.8,20.1L61.8,20.1L61.8,20.1L61.8,20.1z M70.2,25.42c2.59,0,4.69-2.38,4.69-5.32
	c0-2.94-2.1-5.32-4.69-5.32c-2.59,0-4.69,2.38-4.69,5.32C65.51,23.04,67.61,25.42,70.2,25.42L70.2,25.42L70.2,25.42L70.2,25.42z"/>
<polygon class="st2" points="86.75,28.12 88.54,28.12 88.54,22.18 88.54,22.1 94.72,12.27 90.59,12.27 86.75,18.93 82.91,12.27 
	78.77,12.27 84.95,22.1 84.95,22.18 84.95,28.12 86.75,28.12 86.75,28.12 "/>
</svg>
