<?xml version="1.0" encoding="utf-8"?>
<!-- Generator: Adobe Illustrator 24.1.2, SVG Export Plug-In . SVG Version: 6.00 Build 0)  -->
<svg version="1.1" id="Layer_1" xmlns="http://www.w3.org/2000/svg" xmlns:xlink="http://www.w3.org/1999/xlink" x="0px" y="0px"
	 viewBox="0 0 189.92 31.24" style="enable-background:new 0 0 189.92 31.24;" xml:space="preserve">
<style type="text/css">
	.st0{fill-rule:evenodd;clip-rule:evenodd;fill:#ED1C24;}
</style>
<g>
	<path class="st0" d="M22.48,29.65c-2.51-1.58-4.37-7.01-4.37-13.47c0-0.24,0-0.47,0.01-0.7l0,0l0,0l0,0
		c-6.99-1.1-12.05-4.11-12.18-7.67l0,0L5.92,7.85l0,0c-1.71,2.13-2.69,4.59-2.69,7.21c0,7.71,8.46,14.03,19.2,14.59l0,0L22.48,29.65
		L22.48,29.65L22.48,29.65z M0,15.62C0,6.99,10.74,0,23.98,0c13.24,0,23.98,6.99,23.98,15.62c0,8.63-10.74,15.62-23.98,15.62
		C10.74,31.24,0,24.25,0,15.62L0,15.62L0,15.62L0,15.62z M23.98,2.25c2.56,0,4.73,3.88,5.54,9.29l0,0l0-0.01l0,0
		c4.97-0.77,8.46-2.56,8.46-4.64c0-2.79-6.27-5.05-14-5.05c-7.73,0-14,2.26-14,5.05c0,2.08,3.48,3.86,8.46,4.64l0,0l0,0.01l0,0
		C19.25,6.13,21.42,2.25,23.98,2.25L23.98,2.25L23.98,2.25L23.98,2.25z M25.53,29.64c10.74-0.56,19.2-6.88,19.2-14.59
		c0-2.62-0.98-5.08-2.69-7.21l0,0l-0.02-0.04l0,0c-0.13,3.56-5.18,6.57-12.18,7.67l0,0l0,0l0,0c0,0.23,0.01,0.47,0.01,0.7
		c0,6.46-1.85,11.89-4.37,13.47l0,0L25.53,29.64L25.53,29.64L25.53,29.64z M23.98,11.95c1.15,0,2.26-0.05,3.32-0.14l0,0l0,0l0,0
		c-0.53-3.47-1.82-5.92-3.32-5.92c-1.5,0-2.79,2.45-3.32,5.92l0,0l0,0l0,0C21.72,11.9,22.83,11.95,23.98,11.95L23.98,11.95
		L23.98,11.95L23.98,11.95z M23.98,24.79c1.92,0,3.5-4.01,3.58-9.03l0,0l0.01,0l0,0c-1.16,0.11-2.36,0.16-3.59,0.16
		c-1.23,0-2.43-0.06-3.59-0.16l0,0l0.01,0l0,0C20.49,20.79,22.05,24.79,23.98,24.79L23.98,24.79L23.98,24.79L23.98,24.79z"/>
	<path class="st0" d="M122.36,15.62c0-6.59,5.35-11.94,11.94-11.94c6.6,0,11.94,5.35,11.94,11.94c0,6.59-5.35,11.94-11.94,11.94
		C127.71,27.56,122.36,22.22,122.36,15.62L122.36,15.62L122.36,15.62L122.36,15.62z M134.3,23.18c3.68,0,6.67-3.39,6.67-7.56
		c0-4.18-2.99-7.56-6.67-7.56c-3.68,0-6.67,3.39-6.67,7.56C127.64,19.8,130.62,23.18,134.3,23.18L134.3,23.18L134.3,23.18
		L134.3,23.18z"/>
	<polygon class="st0" points="159.79,8.66 159.79,27.02 154.76,27.02 154.76,8.66 154.78,8.66 147.74,8.66 147.74,4.51 166.81,4.51 
		166.81,8.66 159.81,8.66 159.79,8.66 159.79,8.66 	"/>
	<path class="st0" d="M172.89,21.95L172.89,21.95l-1.93,5.07h-5.88l9.29-22.51h3.13h3.13l9.29,22.51h-5.88l-1.93-5.06l0,0h-4.61
		H172.89L172.89,21.95L172.89,21.95z M177.5,18.15h3.17l0,0l-3.14-8.24h-0.04l-3.14,8.24l0,0H177.5L177.5,18.15L177.5,18.15z"/>
	<polygon class="st0" points="67.06,8.66 67.06,27.02 62.03,27.02 62.03,8.66 62.04,8.66 55.01,8.66 55.01,4.51 74.08,4.51 
		74.08,8.66 67.08,8.66 67.06,8.66 67.06,8.66 	"/>
	<path class="st0" d="M75.36,15.62c0-6.59,5.35-11.94,11.94-11.94c6.59,0,11.94,5.35,11.94,11.94c0,6.59-5.35,11.94-11.94,11.94
		C80.71,27.56,75.36,22.22,75.36,15.62L75.36,15.62L75.36,15.62L75.36,15.62z M87.3,23.18c3.68,0,6.67-3.39,6.67-7.56
		c0-4.18-2.99-7.56-6.67-7.56c-3.68,0-6.67,3.39-6.67,7.56C80.64,19.8,83.62,23.18,87.3,23.18L87.3,23.18L87.3,23.18L87.3,23.18z"/>
	<polygon class="st0" points="110.8,27.02 113.35,27.02 113.35,18.58 113.35,18.47 122.13,4.51 116.26,4.51 110.8,13.97 
		105.35,4.51 99.47,4.51 108.25,18.47 108.25,18.58 108.25,27.02 110.8,27.02 110.8,27.02 	"/>
</g>
</svg>
